<mxfile host="app.diagrams.net" agent="Mozilla/5.0 (Windows NT 10.0; Win64; x64) AppleWebKit/537.36 (KHTML, like Gecko) Chrome/128.0.0.0 Safari/537.36" version="24.7.8">
  <diagram name="PÃ¡gina-1" id="YO2Md7HTBXL3xtHtHLOk">
    <mxGraphModel dx="2074" dy="1106" grid="1" gridSize="10" guides="1" tooltips="1" connect="1" arrows="1" fold="1" page="1" pageScale="1" pageWidth="827" pageHeight="1169" math="0" shadow="0">
      <root>
        <mxCell id="0" />
        <mxCell id="1" parent="0" />
        <mxCell id="2RAbPKqvXk-GHuTUpU_U-1" value="Start" style="rounded=1;whiteSpace=wrap;html=1;fillColor=#d5e8d4;strokeColor=#82b366;" vertex="1" parent="1">
          <mxGeometry x="10" y="760" width="120" height="60" as="geometry" />
        </mxCell>
        <mxCell id="2RAbPKqvXk-GHuTUpU_U-2" value="Condicion?" style="rhombus;whiteSpace=wrap;html=1;fillColor=#ffe6cc;strokeColor=#d79b00;" vertex="1" parent="1">
          <mxGeometry x="640" y="520" width="80" height="80" as="geometry" />
        </mxCell>
        <mxCell id="2RAbPKqvXk-GHuTUpU_U-3" value="Start" style="rounded=1;whiteSpace=wrap;html=1;fillColor=#d5e8d4;strokeColor=#82b366;" vertex="1" parent="1">
          <mxGeometry x="40" y="210" width="120" height="60" as="geometry" />
        </mxCell>
        <mxCell id="2RAbPKqvXk-GHuTUpU_U-4" value="Condicion?" style="rhombus;whiteSpace=wrap;html=1;fillColor=#ffe6cc;strokeColor=#d79b00;" vertex="1" parent="1">
          <mxGeometry x="270" y="200" width="80" height="80" as="geometry" />
        </mxCell>
        <mxCell id="2RAbPKqvXk-GHuTUpU_U-5" value="Initialize LCD" style="rounded=0;whiteSpace=wrap;html=1;fillColor=#dae8fc;strokeColor=#6c8ebf;glass=0;shadow=0;" vertex="1" parent="1">
          <mxGeometry x="240" y="760" width="120" height="60" as="geometry" />
        </mxCell>
        <mxCell id="2RAbPKqvXk-GHuTUpU_U-6" value="Step" style="rounded=0;whiteSpace=wrap;html=1;" vertex="1" parent="1">
          <mxGeometry x="460" y="210" width="120" height="60" as="geometry" />
        </mxCell>
        <mxCell id="2RAbPKqvXk-GHuTUpU_U-7" value="" style="rounded=0;whiteSpace=wrap;html=1;dashed=1;fillColor=none;" vertex="1" parent="1">
          <mxGeometry x="660" y="200" width="120" height="60" as="geometry" />
        </mxCell>
        <mxCell id="2RAbPKqvXk-GHuTUpU_U-9" value="" style="rounded=0;whiteSpace=wrap;html=1;dashed=1;fillColor=none;" vertex="1" parent="1">
          <mxGeometry x="820" y="665" width="470" height="250" as="geometry" />
        </mxCell>
        <mxCell id="2RAbPKqvXk-GHuTUpU_U-10" value="Initialize buttons" style="rounded=0;whiteSpace=wrap;html=1;fillColor=#dae8fc;strokeColor=#6c8ebf;glass=0;shadow=0;" vertex="1" parent="1">
          <mxGeometry x="390" y="760" width="120" height="60" as="geometry" />
        </mxCell>
        <mxCell id="2RAbPKqvXk-GHuTUpU_U-11" value="Increase second" style="rounded=0;whiteSpace=wrap;html=1;fillColor=#dae8fc;strokeColor=#6c8ebf;glass=0;shadow=0;" vertex="1" parent="1">
          <mxGeometry x="240" y="1020" width="120" height="60" as="geometry" />
        </mxCell>
      </root>
    </mxGraphModel>
  </diagram>
</mxfile>
